# xmcd
#
# Track frame offsets:
#	150
#	21230
#	38955
#	58707
#	83092
#	103167
#	114040
#	135455
#	158692
#	182180
#
# Disc length: 2756 seconds
#
# Revision: 5
# Processed by: cddbd v1.5.2PL0 Copyright (c) Steve Scherf et al.
# Submitted via: EasyCDDAExtractor 11.9.9.666
#
DISCID=790ac20a
DTITLE=Killing Floor - Out Of Uranus
DYEAR=1971
DGENRE=Rock-Blues
TTITLE0=Out Of Uranus
TTITLE1=Soon There Will Be Everything
TTITLE2=Acid Bean
TTITLE3=Where Nobody Ever Goes
TTITLE4=Sun Keeps Shining
TTITLE5=Call For The Politicians
TTITLE6=Fido Castrol
TTITLE7=Lost Alone
TTITLE8=Son Of Wet
TTITLE9=Milkman
EXTD=
EXTT0=
EXTT1=
EXTT2=
EXTT3=
EXTT4=
EXTT5=
EXTT6=
EXTT7=
EXTT8=
EXTT9=
PLAYORDER=
